# Blender v2.79 (sub 0) OBJ File: 'intersenction.blend'
# www.blender.org
mtllib intersenction.mtl
o Cylinder.001
v 2.222281 0.000000 -3.325878
v 2.222281 1.000000 -3.325878
v 2.828427 0.000000 -2.828427
v 2.828427 1.000000 -2.828427
v 3.325879 0.000000 -2.222281
v 3.325879 1.000000 -2.222281
v 3.695518 0.000000 -1.530734
v 3.695518 1.000000 -1.530734
v 3.923141 0.000000 -0.780361
v 3.923141 1.000000 -0.780361
v 4.000000 0.000000 -0.000000
v 4.000000 1.000000 -0.000000
v 3.923141 0.000000 0.780361
v 3.923141 1.000000 0.780361
v 3.695518 0.000000 1.530733
v 3.695518 1.000000 1.530733
v 3.325879 0.000000 2.222281
v 3.325879 1.000000 2.222281
v 2.828427 0.000000 2.828427
v 2.828427 1.000000 2.828427
v 2.222281 0.000000 3.325879
v 2.222281 1.000000 3.325879
v 1.530733 0.000000 3.695518
v 1.530733 1.000000 3.695518
v 0.780360 0.000000 3.923141
v 0.780360 1.000000 3.923141
v -0.000001 0.000000 4.000000
v -0.000001 1.000000 4.000000
v -0.780363 0.000000 3.923141
v -0.780363 1.000000 3.923141
v -1.530735 0.000000 3.695517
v -1.530735 1.000000 3.695517
v -2.222283 0.000000 3.325877
v -2.222283 1.000000 3.325877
v -2.828429 0.000000 2.828425
v -2.828429 1.000000 2.828425
v -3.325880 0.000000 2.222279
v -3.325880 1.000000 2.222279
v -3.695519 0.000000 1.530731
v -3.695519 1.000000 1.530731
v -3.923142 0.000000 0.780358
v -3.923142 1.000000 0.780358
v -4.000000 0.000000 -0.000004
v -4.000000 1.000000 -0.000004
v -3.923140 0.000000 -0.780365
v -3.923140 1.000000 -0.780365
v -3.695516 0.000000 -1.530738
v -3.695516 1.000000 -1.530738
v -3.325876 0.000000 -2.222285
v -3.325876 1.000000 -2.222285
v -2.828424 0.000000 -2.828431
v -2.828424 1.000000 -2.828431
v -2.222276 0.000000 -3.325881
v -2.222276 1.000000 -3.325881
v -2.000000 -0.000058 -3.635753
v -2.000000 1.000000 -3.635753
v -2.000000 -0.000058 -5.635753
v -2.000000 1.000000 -5.635753
v 2.000000 -0.000058 -3.635753
v 2.000000 1.000000 -3.635753
v 2.000000 -0.000058 -5.635753
v 2.000000 1.000000 -5.635753
vn 0.0000 1.0000 0.0000
vn 0.6344 0.0000 -0.7730
vn 0.7730 0.0000 -0.6344
vn 0.8819 0.0000 -0.4714
vn 0.9569 0.0000 -0.2903
vn 0.9952 0.0000 -0.0980
vn 0.9952 0.0000 0.0980
vn 0.9569 0.0000 0.2903
vn 0.8819 0.0000 0.4714
vn 0.7730 0.0000 0.6344
vn 0.6344 0.0000 0.7730
vn 0.4714 0.0000 0.8819
vn 0.2903 0.0000 0.9569
vn 0.0980 0.0000 0.9952
vn -0.0980 0.0000 0.9952
vn -0.2903 0.0000 0.9569
vn -0.4714 0.0000 0.8819
vn -0.6344 0.0000 0.7730
vn -0.7730 0.0000 0.6344
vn -0.8819 0.0000 0.4714
vn -0.9569 0.0000 0.2903
vn -0.9952 0.0000 0.0980
vn -0.9952 0.0000 -0.0980
vn -0.9569 0.0000 -0.2903
vn -0.8819 0.0000 -0.4714
vn -0.7730 0.0000 -0.6344
vn -0.6344 0.0000 -0.7730
vn -0.8126 0.0000 -0.5829
vn 0.8126 0.0000 -0.5829
vn -1.0000 0.0000 0.0000
vn 1.0000 0.0000 0.0000
usemtl None
s off
f 60//1 56//1 54//1 2//1
f 1//2 2//2 4//2 3//2
f 3//3 4//3 6//3 5//3
f 5//4 6//4 8//4 7//4
f 7//5 8//5 10//5 9//5
f 9//6 10//6 12//6 11//6
f 11//7 12//7 14//7 13//7
f 13//8 14//8 16//8 15//8
f 15//9 16//9 18//9 17//9
f 17//10 18//10 20//10 19//10
f 19//11 20//11 22//11 21//11
f 21//12 22//12 24//12 23//12
f 23//13 24//13 26//13 25//13
f 25//14 26//14 28//14 27//14
f 27//15 28//15 30//15 29//15
f 29//16 30//16 32//16 31//16
f 31//17 32//17 34//17 33//17
f 33//18 34//18 36//18 35//18
f 35//19 36//19 38//19 37//19
f 37//20 38//20 40//20 39//20
f 39//21 40//21 42//21 41//21
f 41//22 42//22 44//22 43//22
f 43//23 44//23 46//23 45//23
f 45//24 46//24 48//24 47//24
f 47//25 48//25 50//25 49//25
f 49//26 50//26 52//26 51//26
f 51//27 52//27 54//27 53//27
f 2//1 54//1 52//1 50//1 48//1 46//1 44//1 42//1 40//1 38//1 36//1 34//1 32//1 30//1 28//1 26//1 24//1 22//1 20//1 18//1 16//1 14//1 12//1 10//1 8//1 6//1 4//1
f 54//28 56//28 55//28 53//28
f 59//29 60//29 2//29 1//29
f 55//30 56//30 58//30 57//30
f 61//31 62//31 60//31 59//31
f 62//1 58//1 56//1 60//1
